<mxfile>
    <diagram id="x4PeXDMpPe7UOGJeChwj" name="Page-1">
        <mxGraphModel dx="650" dy="478" grid="1" gridSize="10" guides="1" tooltips="1" connect="1" arrows="1" fold="1" page="1" pageScale="1" pageWidth="827" pageHeight="1169" math="0" shadow="0">
            <root>
                <mxCell id="0"/>
                <mxCell id="1" parent="0"/>
                <mxCell id="17" value="" style="ellipse;shape=doubleEllipse;whiteSpace=wrap;html=1;aspect=fixed;fillColor=#147E8F;" vertex="1" parent="1">
                    <mxGeometry x="80" y="680" width="120" height="120" as="geometry"/>
                </mxCell>
                <mxCell id="18" value="" style="shape=ext;double=1;whiteSpace=wrap;html=1;aspect=fixed;rotation=-45;" vertex="1" parent="1">
                    <mxGeometry x="100" y="700" width="80" height="80" as="geometry"/>
                </mxCell>
                <mxCell id="20" value="" style="ellipse;shape=doubleEllipse;whiteSpace=wrap;html=1;aspect=fixed;fillColor=#147E8F;" vertex="1" parent="1">
                    <mxGeometry x="200" y="680" width="120" height="120" as="geometry"/>
                </mxCell>
                <mxCell id="21" value="" style="shape=ext;double=1;whiteSpace=wrap;html=1;aspect=fixed;rotation=-45;" vertex="1" parent="1">
                    <mxGeometry x="220" y="700" width="80" height="80" as="geometry"/>
                </mxCell>
                <mxCell id="22" value="" style="ellipse;shape=doubleEllipse;whiteSpace=wrap;html=1;aspect=fixed;fillColor=#147E8F;" vertex="1" parent="1">
                    <mxGeometry x="320" y="680" width="120" height="120" as="geometry"/>
                </mxCell>
                <mxCell id="23" value="" style="shape=ext;double=1;whiteSpace=wrap;html=1;aspect=fixed;rotation=-45;" vertex="1" parent="1">
                    <mxGeometry x="340" y="700" width="80" height="80" as="geometry"/>
                </mxCell>
                <mxCell id="24" value="" style="ellipse;shape=doubleEllipse;whiteSpace=wrap;html=1;aspect=fixed;fillColor=#147E8F;" vertex="1" parent="1">
                    <mxGeometry x="440" y="680" width="120" height="120" as="geometry"/>
                </mxCell>
                <mxCell id="25" value="" style="shape=ext;double=1;whiteSpace=wrap;html=1;aspect=fixed;rotation=-45;" vertex="1" parent="1">
                    <mxGeometry x="460" y="700" width="80" height="80" as="geometry"/>
                </mxCell>
                <mxCell id="26" value="" style="ellipse;shape=doubleEllipse;whiteSpace=wrap;html=1;aspect=fixed;fillColor=#147E8F;" vertex="1" parent="1">
                    <mxGeometry x="80" y="800" width="120" height="120" as="geometry"/>
                </mxCell>
                <mxCell id="27" value="" style="shape=ext;double=1;whiteSpace=wrap;html=1;aspect=fixed;rotation=-45;" vertex="1" parent="1">
                    <mxGeometry x="100" y="820" width="80" height="80" as="geometry"/>
                </mxCell>
                <mxCell id="28" value="" style="ellipse;shape=doubleEllipse;whiteSpace=wrap;html=1;aspect=fixed;fillColor=#147E8F;" vertex="1" parent="1">
                    <mxGeometry x="200" y="800" width="120" height="120" as="geometry"/>
                </mxCell>
                <mxCell id="29" value="" style="shape=ext;double=1;whiteSpace=wrap;html=1;aspect=fixed;rotation=-45;" vertex="1" parent="1">
                    <mxGeometry x="220" y="820" width="80" height="80" as="geometry"/>
                </mxCell>
                <mxCell id="30" value="" style="ellipse;shape=doubleEllipse;whiteSpace=wrap;html=1;aspect=fixed;fillColor=#147E8F;" vertex="1" parent="1">
                    <mxGeometry x="320" y="800" width="120" height="120" as="geometry"/>
                </mxCell>
                <mxCell id="31" value="" style="shape=ext;double=1;whiteSpace=wrap;html=1;aspect=fixed;rotation=-45;" vertex="1" parent="1">
                    <mxGeometry x="340" y="820" width="80" height="80" as="geometry"/>
                </mxCell>
                <mxCell id="32" value="" style="ellipse;shape=doubleEllipse;whiteSpace=wrap;html=1;aspect=fixed;fillColor=#147E8F;" vertex="1" parent="1">
                    <mxGeometry x="440" y="800" width="120" height="120" as="geometry"/>
                </mxCell>
                <mxCell id="33" value="" style="shape=ext;double=1;whiteSpace=wrap;html=1;aspect=fixed;rotation=-45;" vertex="1" parent="1">
                    <mxGeometry x="460" y="820" width="80" height="80" as="geometry"/>
                </mxCell>
                <mxCell id="34" value="" style="ellipse;shape=doubleEllipse;whiteSpace=wrap;html=1;aspect=fixed;fillColor=#147E8F;" vertex="1" parent="1">
                    <mxGeometry x="80" y="920" width="120" height="120" as="geometry"/>
                </mxCell>
                <mxCell id="35" value="" style="shape=ext;double=1;whiteSpace=wrap;html=1;aspect=fixed;rotation=-45;" vertex="1" parent="1">
                    <mxGeometry x="100" y="940" width="80" height="80" as="geometry"/>
                </mxCell>
                <mxCell id="36" value="" style="ellipse;shape=doubleEllipse;whiteSpace=wrap;html=1;aspect=fixed;fillColor=#147E8F;" vertex="1" parent="1">
                    <mxGeometry x="200" y="920" width="120" height="120" as="geometry"/>
                </mxCell>
                <mxCell id="37" value="" style="shape=ext;double=1;whiteSpace=wrap;html=1;aspect=fixed;rotation=-45;" vertex="1" parent="1">
                    <mxGeometry x="220" y="940" width="80" height="80" as="geometry"/>
                </mxCell>
                <mxCell id="38" value="" style="ellipse;shape=doubleEllipse;whiteSpace=wrap;html=1;aspect=fixed;fillColor=#147E8F;" vertex="1" parent="1">
                    <mxGeometry x="320" y="920" width="120" height="120" as="geometry"/>
                </mxCell>
                <mxCell id="39" value="" style="shape=ext;double=1;whiteSpace=wrap;html=1;aspect=fixed;rotation=-45;" vertex="1" parent="1">
                    <mxGeometry x="340" y="940" width="80" height="80" as="geometry"/>
                </mxCell>
                <mxCell id="40" value="" style="ellipse;shape=doubleEllipse;whiteSpace=wrap;html=1;aspect=fixed;fillColor=#147E8F;" vertex="1" parent="1">
                    <mxGeometry x="440" y="920" width="120" height="120" as="geometry"/>
                </mxCell>
                <mxCell id="41" value="" style="shape=ext;double=1;whiteSpace=wrap;html=1;aspect=fixed;rotation=-45;" vertex="1" parent="1">
                    <mxGeometry x="460" y="940" width="80" height="80" as="geometry"/>
                </mxCell>
                <mxCell id="42" value="" style="ellipse;shape=doubleEllipse;whiteSpace=wrap;html=1;aspect=fixed;fillColor=#147E8F;" vertex="1" parent="1">
                    <mxGeometry x="80" y="1040" width="120" height="120" as="geometry"/>
                </mxCell>
                <mxCell id="43" value="" style="shape=ext;double=1;whiteSpace=wrap;html=1;aspect=fixed;rotation=-45;" vertex="1" parent="1">
                    <mxGeometry x="100" y="1060" width="80" height="80" as="geometry"/>
                </mxCell>
                <mxCell id="44" value="" style="ellipse;shape=doubleEllipse;whiteSpace=wrap;html=1;aspect=fixed;fillColor=#147E8F;" vertex="1" parent="1">
                    <mxGeometry x="200" y="1040" width="120" height="120" as="geometry"/>
                </mxCell>
                <mxCell id="45" value="" style="shape=ext;double=1;whiteSpace=wrap;html=1;aspect=fixed;rotation=-45;" vertex="1" parent="1">
                    <mxGeometry x="220" y="1060" width="80" height="80" as="geometry"/>
                </mxCell>
                <mxCell id="46" value="" style="ellipse;shape=doubleEllipse;whiteSpace=wrap;html=1;aspect=fixed;fillColor=#147E8F;" vertex="1" parent="1">
                    <mxGeometry x="320" y="1040" width="120" height="120" as="geometry"/>
                </mxCell>
                <mxCell id="47" value="" style="shape=ext;double=1;whiteSpace=wrap;html=1;aspect=fixed;rotation=-45;" vertex="1" parent="1">
                    <mxGeometry x="340" y="1060" width="80" height="80" as="geometry"/>
                </mxCell>
                <mxCell id="48" value="" style="ellipse;shape=doubleEllipse;whiteSpace=wrap;html=1;aspect=fixed;fillColor=#147E8F;" vertex="1" parent="1">
                    <mxGeometry x="440" y="1040" width="120" height="120" as="geometry"/>
                </mxCell>
                <mxCell id="49" value="" style="shape=ext;double=1;whiteSpace=wrap;html=1;aspect=fixed;rotation=-45;" vertex="1" parent="1">
                    <mxGeometry x="460" y="1060" width="80" height="80" as="geometry"/>
                </mxCell>
                <mxCell id="50" value="" style="shape=switch;whiteSpace=wrap;html=1;fillColor=#FFFFFF;" vertex="1" parent="1">
                    <mxGeometry x="170" y="770" width="60" height="60" as="geometry"/>
                </mxCell>
                <mxCell id="51" value="" style="shape=switch;whiteSpace=wrap;html=1;fillColor=#FFFFFF;" vertex="1" parent="1">
                    <mxGeometry x="290" y="770" width="60" height="60" as="geometry"/>
                </mxCell>
                <mxCell id="52" value="" style="shape=switch;whiteSpace=wrap;html=1;fillColor=#FFFFFF;" vertex="1" parent="1">
                    <mxGeometry x="410" y="770" width="60" height="60" as="geometry"/>
                </mxCell>
                <mxCell id="53" value="" style="shape=switch;whiteSpace=wrap;html=1;fillColor=#FFFFFF;" vertex="1" parent="1">
                    <mxGeometry x="170" y="890" width="60" height="60" as="geometry"/>
                </mxCell>
                <mxCell id="54" value="" style="shape=switch;whiteSpace=wrap;html=1;fillColor=#FFFFFF;" vertex="1" parent="1">
                    <mxGeometry x="290" y="890" width="60" height="60" as="geometry"/>
                </mxCell>
                <mxCell id="55" value="" style="shape=switch;whiteSpace=wrap;html=1;fillColor=#FFFFFF;" vertex="1" parent="1">
                    <mxGeometry x="410" y="890" width="60" height="60" as="geometry"/>
                </mxCell>
                <mxCell id="56" value="" style="shape=switch;whiteSpace=wrap;html=1;fillColor=#FFFFFF;" vertex="1" parent="1">
                    <mxGeometry x="170" y="1010" width="60" height="60" as="geometry"/>
                </mxCell>
                <mxCell id="57" value="" style="shape=switch;whiteSpace=wrap;html=1;fillColor=#FFFFFF;" vertex="1" parent="1">
                    <mxGeometry x="290" y="1010" width="60" height="60" as="geometry"/>
                </mxCell>
                <mxCell id="58" value="" style="shape=switch;whiteSpace=wrap;html=1;fillColor=#FFFFFF;" vertex="1" parent="1">
                    <mxGeometry x="410" y="1010" width="60" height="60" as="geometry"/>
                </mxCell>
                <mxCell id="59" value="" style="shape=sumEllipse;perimeter=ellipsePerimeter;whiteSpace=wrap;html=1;backgroundOutline=1;fillColor=#147E8F;" vertex="1" parent="1">
                    <mxGeometry x="100" y="700" width="80" height="80" as="geometry"/>
                </mxCell>
                <mxCell id="60" value="" style="shape=sumEllipse;perimeter=ellipsePerimeter;whiteSpace=wrap;html=1;backgroundOutline=1;fillColor=#147E8F;" vertex="1" parent="1">
                    <mxGeometry x="220" y="700" width="80" height="80" as="geometry"/>
                </mxCell>
                <mxCell id="61" value="" style="shape=sumEllipse;perimeter=ellipsePerimeter;whiteSpace=wrap;html=1;backgroundOutline=1;fillColor=#147E8F;" vertex="1" parent="1">
                    <mxGeometry x="340" y="700" width="80" height="80" as="geometry"/>
                </mxCell>
                <mxCell id="62" value="" style="shape=sumEllipse;perimeter=ellipsePerimeter;whiteSpace=wrap;html=1;backgroundOutline=1;fillColor=#147E8F;" vertex="1" parent="1">
                    <mxGeometry x="460" y="700" width="80" height="80" as="geometry"/>
                </mxCell>
                <mxCell id="63" value="" style="shape=sumEllipse;perimeter=ellipsePerimeter;whiteSpace=wrap;html=1;backgroundOutline=1;fillColor=#147E8F;" vertex="1" parent="1">
                    <mxGeometry x="100" y="820" width="80" height="80" as="geometry"/>
                </mxCell>
                <mxCell id="64" value="" style="shape=sumEllipse;perimeter=ellipsePerimeter;whiteSpace=wrap;html=1;backgroundOutline=1;fillColor=#147E8F;" vertex="1" parent="1">
                    <mxGeometry x="220" y="820" width="80" height="80" as="geometry"/>
                </mxCell>
                <mxCell id="65" value="" style="shape=sumEllipse;perimeter=ellipsePerimeter;whiteSpace=wrap;html=1;backgroundOutline=1;fillColor=#147E8F;" vertex="1" parent="1">
                    <mxGeometry x="340" y="820" width="80" height="80" as="geometry"/>
                </mxCell>
                <mxCell id="66" value="" style="shape=sumEllipse;perimeter=ellipsePerimeter;whiteSpace=wrap;html=1;backgroundOutline=1;fillColor=#147E8F;" vertex="1" parent="1">
                    <mxGeometry x="460" y="820" width="80" height="80" as="geometry"/>
                </mxCell>
                <mxCell id="67" value="" style="shape=sumEllipse;perimeter=ellipsePerimeter;whiteSpace=wrap;html=1;backgroundOutline=1;fillColor=#147E8F;" vertex="1" parent="1">
                    <mxGeometry x="100" y="940" width="80" height="80" as="geometry"/>
                </mxCell>
                <mxCell id="68" value="" style="shape=sumEllipse;perimeter=ellipsePerimeter;whiteSpace=wrap;html=1;backgroundOutline=1;fillColor=#147E8F;" vertex="1" parent="1">
                    <mxGeometry x="220" y="940" width="80" height="80" as="geometry"/>
                </mxCell>
                <mxCell id="69" value="" style="shape=sumEllipse;perimeter=ellipsePerimeter;whiteSpace=wrap;html=1;backgroundOutline=1;fillColor=#147E8F;" vertex="1" parent="1">
                    <mxGeometry x="340" y="940" width="80" height="80" as="geometry"/>
                </mxCell>
                <mxCell id="70" value="" style="shape=sumEllipse;perimeter=ellipsePerimeter;whiteSpace=wrap;html=1;backgroundOutline=1;fillColor=#147E8F;" vertex="1" parent="1">
                    <mxGeometry x="460" y="940" width="80" height="80" as="geometry"/>
                </mxCell>
                <mxCell id="71" value="" style="shape=sumEllipse;perimeter=ellipsePerimeter;whiteSpace=wrap;html=1;backgroundOutline=1;fillColor=#147E8F;" vertex="1" parent="1">
                    <mxGeometry x="100" y="1060" width="80" height="80" as="geometry"/>
                </mxCell>
                <mxCell id="72" value="" style="shape=sumEllipse;perimeter=ellipsePerimeter;whiteSpace=wrap;html=1;backgroundOutline=1;fillColor=#147E8F;" vertex="1" parent="1">
                    <mxGeometry x="220" y="1060" width="80" height="80" as="geometry"/>
                </mxCell>
                <mxCell id="73" value="" style="shape=sumEllipse;perimeter=ellipsePerimeter;whiteSpace=wrap;html=1;backgroundOutline=1;fillColor=#147E8F;" vertex="1" parent="1">
                    <mxGeometry x="340" y="1060" width="80" height="80" as="geometry"/>
                </mxCell>
                <mxCell id="74" value="" style="shape=sumEllipse;perimeter=ellipsePerimeter;whiteSpace=wrap;html=1;backgroundOutline=1;fillColor=#147E8F;" vertex="1" parent="1">
                    <mxGeometry x="460" y="1060" width="80" height="80" as="geometry"/>
                </mxCell>
                <mxCell id="75" value="" style="endArrow=none;dashed=1;html=1;dashPattern=1 3;strokeWidth=2;" edge="1" parent="1">
                    <mxGeometry width="50" height="50" relative="1" as="geometry">
                        <mxPoint x="86" y="733" as="sourcePoint"/>
                        <mxPoint x="136" y="683" as="targetPoint"/>
                    </mxGeometry>
                </mxCell>
                <mxCell id="76" value="" style="endArrow=none;dashed=1;html=1;dashPattern=1 3;strokeWidth=2;" edge="1" parent="1">
                    <mxGeometry width="50" height="50" relative="1" as="geometry">
                        <mxPoint x="147" y="795" as="sourcePoint"/>
                        <mxPoint x="197" y="745" as="targetPoint"/>
                    </mxGeometry>
                </mxCell>
                <mxCell id="77" value="" style="endArrow=none;dashed=1;html=1;dashPattern=1 3;strokeWidth=2;" edge="1" parent="1">
                    <mxGeometry width="50" height="50" relative="1" as="geometry">
                        <mxPoint x="206" y="733" as="sourcePoint"/>
                        <mxPoint x="256" y="683" as="targetPoint"/>
                    </mxGeometry>
                </mxCell>
                <mxCell id="78" value="" style="endArrow=none;dashed=1;html=1;dashPattern=1 3;strokeWidth=2;" edge="1" parent="1">
                    <mxGeometry width="50" height="50" relative="1" as="geometry">
                        <mxPoint x="267" y="795" as="sourcePoint"/>
                        <mxPoint x="317" y="745" as="targetPoint"/>
                    </mxGeometry>
                </mxCell>
                <mxCell id="79" value="" style="endArrow=none;dashed=1;html=1;dashPattern=1 3;strokeWidth=2;" edge="1" parent="1">
                    <mxGeometry width="50" height="50" relative="1" as="geometry">
                        <mxPoint x="323.5" y="736" as="sourcePoint"/>
                        <mxPoint x="373.5" y="686" as="targetPoint"/>
                    </mxGeometry>
                </mxCell>
                <mxCell id="80" value="" style="endArrow=none;dashed=1;html=1;dashPattern=1 3;strokeWidth=2;" edge="1" parent="1">
                    <mxGeometry width="50" height="50" relative="1" as="geometry">
                        <mxPoint x="384.5" y="798" as="sourcePoint"/>
                        <mxPoint x="434.5" y="748" as="targetPoint"/>
                    </mxGeometry>
                </mxCell>
                <mxCell id="84" value="" style="endArrow=none;dashed=1;html=1;dashPattern=1 3;strokeWidth=2;" edge="1" parent="1">
                    <mxGeometry width="50" height="50" relative="1" as="geometry">
                        <mxPoint x="444.5" y="735" as="sourcePoint"/>
                        <mxPoint x="494.5" y="685" as="targetPoint"/>
                    </mxGeometry>
                </mxCell>
                <mxCell id="85" value="" style="endArrow=none;dashed=1;html=1;dashPattern=1 3;strokeWidth=2;" edge="1" parent="1">
                    <mxGeometry width="50" height="50" relative="1" as="geometry">
                        <mxPoint x="505.5" y="797" as="sourcePoint"/>
                        <mxPoint x="555.5" y="747" as="targetPoint"/>
                    </mxGeometry>
                </mxCell>
                <mxCell id="86" value="" style="endArrow=none;dashed=1;html=1;dashPattern=1 3;strokeWidth=2;" edge="1" parent="1">
                    <mxGeometry width="50" height="50" relative="1" as="geometry">
                        <mxPoint x="84.5" y="854" as="sourcePoint"/>
                        <mxPoint x="134.5" y="804" as="targetPoint"/>
                    </mxGeometry>
                </mxCell>
                <mxCell id="87" value="" style="endArrow=none;dashed=1;html=1;dashPattern=1 3;strokeWidth=2;" edge="1" parent="1">
                    <mxGeometry width="50" height="50" relative="1" as="geometry">
                        <mxPoint x="145.5" y="916" as="sourcePoint"/>
                        <mxPoint x="195.5" y="866" as="targetPoint"/>
                    </mxGeometry>
                </mxCell>
                <mxCell id="88" value="" style="endArrow=none;dashed=1;html=1;dashPattern=1 3;strokeWidth=2;" edge="1" parent="1">
                    <mxGeometry width="50" height="50" relative="1" as="geometry">
                        <mxPoint x="206" y="853" as="sourcePoint"/>
                        <mxPoint x="256" y="803" as="targetPoint"/>
                    </mxGeometry>
                </mxCell>
                <mxCell id="89" value="" style="endArrow=none;dashed=1;html=1;dashPattern=1 3;strokeWidth=2;" edge="1" parent="1">
                    <mxGeometry width="50" height="50" relative="1" as="geometry">
                        <mxPoint x="267" y="915" as="sourcePoint"/>
                        <mxPoint x="317" y="865" as="targetPoint"/>
                    </mxGeometry>
                </mxCell>
                <mxCell id="90" value="" style="endArrow=none;dashed=1;html=1;dashPattern=1 3;strokeWidth=2;" edge="1" parent="1">
                    <mxGeometry width="50" height="50" relative="1" as="geometry">
                        <mxPoint x="324.5" y="855" as="sourcePoint"/>
                        <mxPoint x="374.5" y="805" as="targetPoint"/>
                    </mxGeometry>
                </mxCell>
                <mxCell id="91" value="" style="endArrow=none;dashed=1;html=1;dashPattern=1 3;strokeWidth=2;" edge="1" parent="1">
                    <mxGeometry width="50" height="50" relative="1" as="geometry">
                        <mxPoint x="385.5" y="917" as="sourcePoint"/>
                        <mxPoint x="435.5" y="867" as="targetPoint"/>
                    </mxGeometry>
                </mxCell>
                <mxCell id="92" value="" style="endArrow=none;dashed=1;html=1;dashPattern=1 3;strokeWidth=2;" edge="1" parent="1">
                    <mxGeometry width="50" height="50" relative="1" as="geometry">
                        <mxPoint x="446.5" y="853" as="sourcePoint"/>
                        <mxPoint x="496.5" y="803" as="targetPoint"/>
                    </mxGeometry>
                </mxCell>
                <mxCell id="93" value="" style="endArrow=none;dashed=1;html=1;dashPattern=1 3;strokeWidth=2;" edge="1" parent="1">
                    <mxGeometry width="50" height="50" relative="1" as="geometry">
                        <mxPoint x="507.5" y="915" as="sourcePoint"/>
                        <mxPoint x="557.5" y="865" as="targetPoint"/>
                    </mxGeometry>
                </mxCell>
                <mxCell id="94" value="" style="endArrow=none;dashed=1;html=1;dashPattern=1 3;strokeWidth=2;" edge="1" parent="1">
                    <mxGeometry width="50" height="50" relative="1" as="geometry">
                        <mxPoint x="84.5" y="975" as="sourcePoint"/>
                        <mxPoint x="134.5" y="925" as="targetPoint"/>
                    </mxGeometry>
                </mxCell>
                <mxCell id="95" value="" style="endArrow=none;dashed=1;html=1;dashPattern=1 3;strokeWidth=2;" edge="1" parent="1">
                    <mxGeometry width="50" height="50" relative="1" as="geometry">
                        <mxPoint x="145.5" y="1037" as="sourcePoint"/>
                        <mxPoint x="195.5" y="987" as="targetPoint"/>
                    </mxGeometry>
                </mxCell>
                <mxCell id="96" value="" style="endArrow=none;dashed=1;html=1;dashPattern=1 3;strokeWidth=2;" edge="1" parent="1">
                    <mxGeometry width="50" height="50" relative="1" as="geometry">
                        <mxPoint x="204.5" y="975" as="sourcePoint"/>
                        <mxPoint x="254.5" y="925" as="targetPoint"/>
                    </mxGeometry>
                </mxCell>
                <mxCell id="97" value="" style="endArrow=none;dashed=1;html=1;dashPattern=1 3;strokeWidth=2;" edge="1" parent="1">
                    <mxGeometry width="50" height="50" relative="1" as="geometry">
                        <mxPoint x="265.5" y="1037" as="sourcePoint"/>
                        <mxPoint x="315.5" y="987" as="targetPoint"/>
                    </mxGeometry>
                </mxCell>
                <mxCell id="98" value="" style="endArrow=none;dashed=1;html=1;dashPattern=1 3;strokeWidth=2;" edge="1" parent="1">
                    <mxGeometry width="50" height="50" relative="1" as="geometry">
                        <mxPoint x="324.5" y="974" as="sourcePoint"/>
                        <mxPoint x="374.5" y="924" as="targetPoint"/>
                    </mxGeometry>
                </mxCell>
                <mxCell id="99" value="" style="endArrow=none;dashed=1;html=1;dashPattern=1 3;strokeWidth=2;" edge="1" parent="1">
                    <mxGeometry width="50" height="50" relative="1" as="geometry">
                        <mxPoint x="385.5" y="1036" as="sourcePoint"/>
                        <mxPoint x="435.5" y="986" as="targetPoint"/>
                    </mxGeometry>
                </mxCell>
                <mxCell id="100" value="" style="endArrow=none;dashed=1;html=1;dashPattern=1 3;strokeWidth=2;" edge="1" parent="1">
                    <mxGeometry width="50" height="50" relative="1" as="geometry">
                        <mxPoint x="444.5" y="975" as="sourcePoint"/>
                        <mxPoint x="494.5" y="925" as="targetPoint"/>
                    </mxGeometry>
                </mxCell>
                <mxCell id="101" value="" style="endArrow=none;dashed=1;html=1;dashPattern=1 3;strokeWidth=2;" edge="1" parent="1">
                    <mxGeometry width="50" height="50" relative="1" as="geometry">
                        <mxPoint x="505.5" y="1037" as="sourcePoint"/>
                        <mxPoint x="555.5" y="987" as="targetPoint"/>
                    </mxGeometry>
                </mxCell>
                <mxCell id="104" value="" style="endArrow=none;dashed=1;html=1;dashPattern=1 3;strokeWidth=2;" edge="1" parent="1">
                    <mxGeometry width="50" height="50" relative="1" as="geometry">
                        <mxPoint x="85" y="1093" as="sourcePoint"/>
                        <mxPoint x="135" y="1043" as="targetPoint"/>
                    </mxGeometry>
                </mxCell>
                <mxCell id="105" value="" style="endArrow=none;dashed=1;html=1;dashPattern=1 3;strokeWidth=2;" edge="1" parent="1">
                    <mxGeometry width="50" height="50" relative="1" as="geometry">
                        <mxPoint x="146" y="1155" as="sourcePoint"/>
                        <mxPoint x="196" y="1105" as="targetPoint"/>
                    </mxGeometry>
                </mxCell>
                <mxCell id="106" value="" style="endArrow=none;dashed=1;html=1;dashPattern=1 3;strokeWidth=2;" edge="1" parent="1">
                    <mxGeometry width="50" height="50" relative="1" as="geometry">
                        <mxPoint x="206" y="853" as="sourcePoint"/>
                        <mxPoint x="256" y="803" as="targetPoint"/>
                    </mxGeometry>
                </mxCell>
                <mxCell id="107" value="" style="endArrow=none;dashed=1;html=1;dashPattern=1 3;strokeWidth=2;" edge="1" parent="1">
                    <mxGeometry width="50" height="50" relative="1" as="geometry">
                        <mxPoint x="267" y="915" as="sourcePoint"/>
                        <mxPoint x="317" y="865" as="targetPoint"/>
                    </mxGeometry>
                </mxCell>
                <mxCell id="109" value="" style="endArrow=none;dashed=1;html=1;dashPattern=1 3;strokeWidth=2;" edge="1" parent="1">
                    <mxGeometry width="50" height="50" relative="1" as="geometry">
                        <mxPoint x="203" y="1096" as="sourcePoint"/>
                        <mxPoint x="253" y="1046" as="targetPoint"/>
                    </mxGeometry>
                </mxCell>
                <mxCell id="110" value="" style="endArrow=none;dashed=1;html=1;dashPattern=1 3;strokeWidth=2;" edge="1" parent="1">
                    <mxGeometry width="50" height="50" relative="1" as="geometry">
                        <mxPoint x="264" y="1158" as="sourcePoint"/>
                        <mxPoint x="314" y="1108" as="targetPoint"/>
                    </mxGeometry>
                </mxCell>
                <mxCell id="111" value="" style="endArrow=none;dashed=1;html=1;dashPattern=1 3;strokeWidth=2;" edge="1" parent="1">
                    <mxGeometry width="50" height="50" relative="1" as="geometry">
                        <mxPoint x="324.5" y="1095" as="sourcePoint"/>
                        <mxPoint x="374.5" y="1045" as="targetPoint"/>
                    </mxGeometry>
                </mxCell>
                <mxCell id="112" value="" style="endArrow=none;dashed=1;html=1;dashPattern=1 3;strokeWidth=2;" edge="1" parent="1">
                    <mxGeometry width="50" height="50" relative="1" as="geometry">
                        <mxPoint x="385.5" y="1157" as="sourcePoint"/>
                        <mxPoint x="435.5" y="1107" as="targetPoint"/>
                    </mxGeometry>
                </mxCell>
                <mxCell id="113" value="" style="endArrow=none;dashed=1;html=1;dashPattern=1 3;strokeWidth=2;" edge="1" parent="1">
                    <mxGeometry width="50" height="50" relative="1" as="geometry">
                        <mxPoint x="445.5" y="1094" as="sourcePoint"/>
                        <mxPoint x="495.5" y="1044" as="targetPoint"/>
                    </mxGeometry>
                </mxCell>
                <mxCell id="114" value="" style="endArrow=none;dashed=1;html=1;dashPattern=1 3;strokeWidth=2;" edge="1" parent="1">
                    <mxGeometry width="50" height="50" relative="1" as="geometry">
                        <mxPoint x="506.5" y="1156" as="sourcePoint"/>
                        <mxPoint x="556.5" y="1106" as="targetPoint"/>
                    </mxGeometry>
                </mxCell>
                <mxCell id="116" value="" style="shape=cross;whiteSpace=wrap;html=1;fillColor=#FFFFFF;rotation=45;" vertex="1" parent="1">
                    <mxGeometry x="220" y="1060" width="80" height="80" as="geometry"/>
                </mxCell>
                <mxCell id="117" value="" style="shape=cross;whiteSpace=wrap;html=1;fillColor=#FFFFFF;rotation=45;" vertex="1" parent="1">
                    <mxGeometry x="100" y="700" width="80" height="80" as="geometry"/>
                </mxCell>
                <mxCell id="118" value="" style="shape=cross;whiteSpace=wrap;html=1;fillColor=#FFFFFF;rotation=45;" vertex="1" parent="1">
                    <mxGeometry x="340" y="700" width="80" height="80" as="geometry"/>
                </mxCell>
                <mxCell id="120" value="" style="shape=cross;whiteSpace=wrap;html=1;fillColor=#FFFFFF;rotation=45;" vertex="1" parent="1">
                    <mxGeometry x="100" y="940" width="80" height="80" as="geometry"/>
                </mxCell>
                <mxCell id="121" value="" style="shape=cross;whiteSpace=wrap;html=1;fillColor=#FFFFFF;rotation=45;" vertex="1" parent="1">
                    <mxGeometry x="460" y="1060" width="80" height="80" as="geometry"/>
                </mxCell>
                <mxCell id="122" value="" style="shape=cross;whiteSpace=wrap;html=1;fillColor=#FFFFFF;rotation=45;" vertex="1" parent="1">
                    <mxGeometry x="340" y="940" width="80" height="80" as="geometry"/>
                </mxCell>
                <mxCell id="124" value="" style="shape=cross;whiteSpace=wrap;html=1;fillColor=#FFFFFF;rotation=45;" vertex="1" parent="1">
                    <mxGeometry x="220" y="820" width="80" height="80" as="geometry"/>
                </mxCell>
                <mxCell id="125" value="" style="shape=cross;whiteSpace=wrap;html=1;fillColor=#FFFFFF;rotation=45;" vertex="1" parent="1">
                    <mxGeometry x="460" y="820" width="80" height="80" as="geometry"/>
                </mxCell>
                <mxCell id="128" value="" style="rhombus;whiteSpace=wrap;html=1;fillColor=#FFFFFF;" vertex="1" parent="1">
                    <mxGeometry x="220" y="700" width="80" height="80" as="geometry"/>
                </mxCell>
                <mxCell id="129" value="" style="rhombus;whiteSpace=wrap;html=1;fillColor=#FFFFFF;" vertex="1" parent="1">
                    <mxGeometry x="100" y="820" width="80" height="80" as="geometry"/>
                </mxCell>
                <mxCell id="130" value="" style="rhombus;whiteSpace=wrap;html=1;fillColor=#FFFFFF;" vertex="1" parent="1">
                    <mxGeometry x="340" y="820" width="80" height="80" as="geometry"/>
                </mxCell>
                <mxCell id="131" value="" style="rhombus;whiteSpace=wrap;html=1;fillColor=#FFFFFF;" vertex="1" parent="1">
                    <mxGeometry x="460" y="700" width="80" height="80" as="geometry"/>
                </mxCell>
                <mxCell id="132" value="" style="rhombus;whiteSpace=wrap;html=1;fillColor=#FFFFFF;" vertex="1" parent="1">
                    <mxGeometry x="220" y="940" width="80" height="80" as="geometry"/>
                </mxCell>
                <mxCell id="133" value="" style="rhombus;whiteSpace=wrap;html=1;fillColor=#FFFFFF;" vertex="1" parent="1">
                    <mxGeometry x="460" y="940" width="80" height="80" as="geometry"/>
                </mxCell>
                <mxCell id="134" value="" style="rhombus;whiteSpace=wrap;html=1;fillColor=#FFFFFF;" vertex="1" parent="1">
                    <mxGeometry x="100" y="1060" width="80" height="80" as="geometry"/>
                </mxCell>
                <mxCell id="135" value="" style="rhombus;whiteSpace=wrap;html=1;fillColor=#FFFFFF;" vertex="1" parent="1">
                    <mxGeometry x="340" y="1060" width="80" height="80" as="geometry"/>
                </mxCell>
            </root>
        </mxGraphModel>
    </diagram>
</mxfile>